# xmcd
#
# Track frame offsets:
#	150
#	13805
#	28505
#	45580
#	62647
#	76530
#	92307
#	105025
#	116440
#	135027
#	153685
#	165515
#	178202
#	190355
#	207152
#
# Disc length: 2959 seconds
#
# Revision: 1
# Processed by: cddbd v1.5.1PL0 Copyright (c) Steve Scherf et al.
# Submitted via: audiograbber 1.83.01
#
DISCID=a90b8d0f
DTITLE=Manfred Kriegel - 24 Stunden Hat Der Tag
DYEAR=1900
DGENRE=Country
TTITLE0=Auf Der Autobahn
TTITLE1=24 Stunden Hat Der Tag
TTITLE2=Ich Wollte Countrys‰nger Werden
TTITLE3=Alle Sch‰tze Dieser Welt
TTITLE4=Er Ist Der Cowboy
TTITLE5=Du Bist Nicht Mein M‰dchen
TTITLE6=Mit 120 Sachen
TTITLE7=Hey Josephine
TTITLE8=Nur Der Wind
TTITLE9=‹berall Lauert Der Teufel
TTITLE10=Doch Nicht Mit Mir
TTITLE11=Immer Unterwegs
TTITLE12=Drum Laﬂ' Es Sein
TTITLE13=Black Your Hair
TTITLE14=Uns Kann Nichts Geschehen
EXTD=
EXTT0=
EXTT1=
EXTT2=
EXTT3=
EXTT4=
EXTT5=
EXTT6=
EXTT7=
EXTT8=
EXTT9=
EXTT10=
EXTT11=
EXTT12=
EXTT13=
EXTT14=
PLAYORDER=
